:version 1.10
:name ASF
:units
  mass 1
  length 1
  angle deg
:documentation
  ASF file generated by Kaydara
:root
  axis xyz
  order  tx ty tz rx ry rz
  position 0 0 0
  orientation 0 0 0
:bonedata
  begin
    id 1
    name LeftUpLegDummy
    direction 1 -2.30186e-007 -8.31532e-007
    length 2.93387
    axis 0 0 0 xyz
  end
  begin
    id 2
    name LeftUpLeg
    direction -1.82929e-007 -1 -1.48925e-009
    length 17.3336
    axis -3.48766 0.00143442 -0.000521554 xyz
    dof rx ry rz
  end
  begin
    id 3
    name LeftLeg
    direction -1.82929e-007 -1 -5.23717e-011
    length 14.9995
    axis 3.68178 -0.00654042 -0.000282425 xyz
    dof rx ry rz
  end
  begin
    id 4
    name LeftFoot
    direction 8.31532e-007 -4.54534e-011 1
    length 6.74421
    axis 1.87234e-006 4.66016e-005 -5.96866e-006 xyz
    dof rx ry rz
  end
  begin
    id 5
    name LeftToes
    direction 0.00818058 -0.00485161 0.999955
    length 3.85048
    axis 1.06247e-005 4.65869e-005 -5.96999e-006 xyz
    dof rx ry rz
  end
  begin
    id 6
    name SpineDummy
    direction -5.8607e-008 0.943407 -0.331637
    length 5.93572
    axis 0 0 0 xyz
  end
  begin
    id 7
    name Spine
    direction -1.04988e-007 0.999988 0.00495137
    length 10.1015
    axis -0.001389 0.000121417 6.61666e-006 xyz
    dof rx ry rz
  end
  begin
    id 8
    name Spine1
    direction 0 0 0
    length 0
    axis -0.001389 0.00012144 6.56766e-006 xyz
    dof rx ry rz
  end
  begin
    id 9
    name RightShoulderDummy
    direction -0.98348 0.17941 -0.0240696
    length 3.59882
    axis -0.001389 0.00012144 6.56766e-006 xyz
  end
  begin
    id 10
    name RightShoulder
    direction -0.978693 0.204882 0.0135597
    length 2.70001
    axis 0.215806 0.000203631 -0.00679732 xyz
    dof rx ry rz
  end
  begin
    id 11
    name RightArm
    direction -1 3.85509e-006 8.31394e-007
    length 10.2459
    axis -23.2009 -0.134239 -0.964098 xyz
    dof rx ry rz
  end
  begin
    id 12
    name RightForeArm
    direction -1 3.85569e-006 8.3129e-007
    length 8.16799
    axis -9.92322 0.0658061 0.17887 xyz
    dof rx ry rz
  end
  begin
    id 13
    name RightHand
    direction -0.992843 -0.0414604 0.112003
    length 5.28593
    axis -0.00960638 0.00330669 -0.185225 xyz
    dof rx ry rz
  end
  begin
    id 14
    name LeftShoulder1Dummy
    direction 0.983523 0.179172 -0.0240748
    length 3.59866
    axis -0.001389 0.00012144 6.56766e-006 xyz
  end
  begin
    id 15
    name LeftShoulder1
    direction 0.978627 0.205195 0.0135605
    length 2.70019
    axis -0.001389 0.00012144 6.57583e-006 xyz
    dof rx ry rz
  end
  begin
    id 16
    name LeftArm
    direction 1 3.51895e-006 -8.60188e-007
    length 10.2459
    axis -23.1894 0.134785 0.967513 xyz
    dof rx ry rz
  end
  begin
    id 17
    name LeftForeArm
    direction 1 3.51921e-006 -7.32029e-007
    length 8.16799
    axis -9.91835 -0.0656957 -0.177789 xyz
    dof rx ry rz
  end
  begin
    id 18
    name LeftHand
    direction 0.992938 -0.0411636 0.11126
    length 5.32135
    axis -0.00960237 -0.00340661 0.185177 xyz
    dof rx ry rz
  end
  begin
    id 19
    name HEadDummy
    direction 1.01974e-006 0.999861 -0.016675
    length 2.99946
    axis -0.001389 0.00012144 6.56766e-006 xyz
  end
  begin
    id 20
    name HEad
    direction -0.0222689 0.980941 0.193023
    length 5.12695
    axis -0.001389 0.00012144 6.56766e-006 xyz
    dof rx ry rz
  end
  begin
    id 21
    name RightUpLegDummy
    direction -1 2.30186e-007 8.31532e-007
    length 2.93387
    axis 0 0 0 xyz
  end
  begin
    id 22
    name RightUpLeg
    direction -1.82966e-007 -1 1.56832e-007
    length 17.3336
    axis -3.4909 -0.000906625 0.00028951 xyz
    dof rx ry rz
  end
  begin
    id 23
    name RightLeg
    direction -1.82786e-007 -1 -1.80317e-007
    length 14.9995
    axis 3.68513 0.0193739 -0.131021 xyz
    dof rx ry rz
  end
  begin
    id 24
    name RightFoot
    direction 8.31721e-007 -4.63324e-011 1
    length 6.74421
    axis 4.81691e-005 -0.120479 -0.188785 xyz
    dof rx ry rz
  end
  begin
    id 25
    name RightToes
    direction 0.00124746 -0.014064 0.9999
    length 3.85082
    axis 0.000481921 0.542163 -0.142575 xyz
    dof rx ry rz
  end
:hierarchy
  begin
    root LeftUpLegDummy SpineDummy RightUpLegDummy
    LeftUpLegDummy LeftUpLeg
    LeftUpLeg LeftLeg
    LeftLeg LeftFoot
    LeftFoot LeftToes
    SpineDummy Spine
    Spine Spine1
    Spine1 RightShoulderDummy LeftShoulder1Dummy HEadDummy
    RightShoulderDummy RightShoulder
    RightShoulder RightArm
    RightArm RightForeArm
    RightForeArm RightHand
    LeftShoulder1Dummy LeftShoulder1
    LeftShoulder1 LeftArm
    LeftArm LeftForeArm
    LeftForeArm LeftHand
    HEadDummy HEad
    RightUpLegDummy RightUpLeg
    RightUpLeg RightLeg
    RightLeg RightFoot
    RightFoot RightToes
  end

:SAMPLES-PER-SECOND 30
:FULLY-SPECIFIED
:DEGREES
214
root  1.01809 34.2088 17.441 4.13122 30.4754 -1.1543
LeftUpLeg  -7.54132 10.5394 2.21101
LeftLeg  11.0269 7.75171 0.994817
LeftFoot  -0.329547 -8.16266e-005 -0.0283921
LeftToes  -15.3636 1.92152e-006 4.03786e-008
Spine  1.95041 0.746883 -0.602602
Spine1  3.66153 1.5338 -1.02826
RightShoulder  0.0331165 1.70178 6.36862
RightArm  -12.9756 -17.1503 75.0382
RightForeArm  31.8643 69.0815 27.6632
RightHand  4.84548 -16.112 -32.9037
LeftShoulder1  0.0350779 1.67108 -10.6926
LeftArm  -23.81 16.3693 -65.2426
LeftForeArm  21.8683 -17.5717 -3.19598
LeftHand  0.0829366 3.17359 2.55667
HEad  8.70679 -24.5174 0.477331
RightUpLeg  -12.826 -16.2273 -4.8461
RightLeg  11.0673 5.30347 0.687966
RightFoot  8.09392 -0.0226541 0.814039
RightToes  -33.475 -0.168568 -0.275378
215
root  1.00459 34.2318 17.4783 3.9658 29.2531 -1.32096
LeftUpLeg  -7.15138 10.715 2.43094
LeftLeg  10.8724 8.74547 1.0977
LeftFoot  -0.315448 0.0018542 -0.0310194
LeftToes  -15.3664 1.92152e-006 4.03786e-008
Spine  1.92721 0.308772 -0.500016
Spine1  3.65429 0.655155 -0.848332
RightShoulder  0.0254957 1.11066 5.71693
RightArm  -12.22 -16.4814 71.4653
RightForeArm  36.5321 70.3695 29.8516
RightHand  4.35676 -15.2139 -31.4134
LeftShoulder1  0.0339223 1.22948 -11.0279
LeftArm  -26.3377 18.3781 -63.6238
LeftForeArm  17.0539 -19.5503 -3.58368
LeftHand  0.0810027 3.22757 2.49924
HEad  9.74072 -21.8977 0.292678
RightUpLeg  -13.0901 -14.8295 -4.61188
RightLeg  11.4137 5.04646 0.685715
RightFoot  8.09517 -0.0193524 0.771617
RightToes  -32.7549 -0.163344 -0.27065
216
root  0.946508 34.2521 17.5437 3.70559 27.3138 -1.54327
LeftUpLeg  -6.59339 11.4462 2.81259
LeftLeg  10.7586 9.89383 1.22076
LeftFoot  -0.326614 0.00456185 -0.0391805
LeftToes  -15.442 1.92152e-006 4.03786e-008
Spine  1.9561 0.165003 -0.482183
Spine1  3.72786 0.372726 -0.83572
RightShoulder  0.0234802 0.894501 5.52452
RightArm  -11.7299 -14.6351 68.2865
RightForeArm  39.6144 70.9077 30.8664
RightHand  3.76548 -14.2166 -29.1518
LeftShoulder1  0.0329142 0.983779 -10.9747
LeftArm  -30.0154 19.2779 -62.1298
LeftForeArm  14.1615 -21.1993 -3.91378
LeftHand  0.0865831 3.012 2.91572
HEad  10.0419 -19.7067 0.601208
RightUpLeg  -13.2209 -12.3517 -4.25759
RightLeg  11.4257 4.42701 0.602771
RightFoot  8.21637 -0.0135059 0.687386
RightToes  -32.3058 -0.160117 -0.267668
217
root  0.864387 34.2685 17.6481 3.57654 25.2083 -1.69604
LeftUpLeg  -6.01214 11.8544 3.17062
LeftLeg  10.5912 11.5559 1.3894
LeftFoot  -0.286484 0.00678762 -0.0397971
LeftToes  -15.6112 1.92152e-006 4.03786e-008
Spine  1.94919 0.228305 -0.422243
Spine1  3.70991 0.49909 -0.720887
RightShoulder  0.0238331 0.799426 5.26329
RightArm  -9.77711 -12.9062 66.3142
RightForeArm  43.1287 72.2649 33.7438
RightHand  3.30725 -13.7983 -26.4569
LeftShoulder1  0.032128 0.865778 -10.7213
LeftArm  -34.7222 19.0229 -60.8874
LeftForeArm  12.1024 -22.5678 -4.19336
LeftHand  0.112174 2.95307 3.97049
HEad  9.97779 -18.2336 0.952414
RightUpLeg  -13.525 -10.9767 -3.79115
RightLeg  11.6552 5.071 0.710762
RightFoot  8.10515 -0.0184852 0.769577
RightToes  -31.174 -0.152088 -0.260042
218
root  0.754371 34.2883 17.8016 3.67528 23.5017 -1.74343
LeftUpLeg  -5.50782 11.9223 3.45749
LeftLeg  10.2261 13.2267 1.50242
LeftFoot  -0.0799716 0.0059529 0.000798729
LeftToes  -15.8614 1.92152e-006 4.03786e-008
Spine  1.8959 0.339766 -0.328461
Spine1  3.60263 0.70731 -0.52009
RightShoulder  0.0245097 0.522988 4.66381
RightArm  -6.07302 -12.1091 66.6291
RightForeArm  48.985 74.2926 39.2064
RightHand  3.0603 -14.0692 -24.0485
LeftShoulder1  0.0316382 0.7107 -10.3164
LeftArm  -40.2353 17.6926 -59.7703
LeftForeArm  9.50006 -24.0495 -4.50201
LeftHand  0.160193 3.26859 5.22904
HEad  9.47964 -17.362 1.30206
RightUpLeg  -13.8739 -11.1644 -3.25289
RightLeg  11.9049 6.89901 0.996242
RightFoot  7.7713 -0.0323638 0.988994
RightToes  -29.8469 -0.142868 -0.2509
219
root  0.620298 34.325 17.9791 3.86153 22.221 -1.8486
LeftUpLeg  -5.25275 11.7334 3.79981
LeftLeg  10.0546 14.8088 1.63404
LeftFoot  0.216262 0.00206162 0.0761414
LeftToes  -16.1216 1.92152e-006 4.03786e-008
Spine  1.82293 0.408568 -0.19217
Spine1  3.45715 0.842393 -0.252506
RightShoulder  0.0249341 0.259499 4.49226
RightArm  -0.358131 -12.243 68.8835
RightForeArm  50.5879 74.966 41.4539
RightHand  3.23721 -14.9922 -23.8605
LeftShoulder1  0.031519 0.438528 -9.72358
LeftArm  -45.8296 15.728 -58.7641
LeftForeArm  6.41877 -26.9924 -5.13874
LeftHand  0.255611 4.04667 6.844
HEad  8.55336 -16.679 1.68348
RightUpLeg  -14.1143 -11.4491 -2.65353
RightLeg  11.9331 8.48802 1.22838
RightFoot  7.61006 -0.0444738 1.18078
RightToes  -28.8094 -0.135809 -0.243607
220
root  0.459535 34.3502 18.1553 3.99345 20.9329 -1.98813
LeftUpLeg  -5.32818 11.6987 4.22618
LeftLeg  10.6994 16.211 1.96705
LeftFoot  0.300622 -0.000284156 0.108307
LeftToes  -16.6258 1.92152e-006 4.03786e-008
Spine  1.82033 0.44417 0.00692029
Spine1  3.4362 0.904661 0.16717
RightShoulder  0.0256727 0.574835 4.94283
RightArm  4.6051 -13.5341 72.4898
RightForeArm  47.3682 74.0909 38.5817
RightHand  3.62062 -15.7171 -25.4157
LeftShoulder1  0.0318449 0.00170255 -9.07266
LeftArm  -50.4965 12.9762 -57.8297
LeftForeArm  5.01417 -30.319 -5.90313
LeftHand  0.440431 4.93809 9.80363
HEad  6.8049 -16.1557 1.86587
RightUpLeg  -14.4163 -10.4411 -2.15285
RightLeg  12.224 8.95447 1.34155
RightFoot  7.40853 -0.0464019 1.21513
RightToes  -27.8539 -0.129426 -0.236777
